<mxfile host="app.diagrams.net" modified="2021-01-23T13:22:21.744Z" agent="5.0 (X11)" etag="gQFqP30tFkcNpi14tYFj" version="14.2.7" type="github">
  <diagram id="RPyf5At3vDjsf7IcdoR_" name="Page-1">
    <mxGraphModel dx="1366" dy="804" grid="1" gridSize="10" guides="1" tooltips="1" connect="1" arrows="1" fold="1" page="1" pageScale="1" pageWidth="850" pageHeight="1100" math="0" shadow="0">
      <root>
        <mxCell id="0" />
        <mxCell id="1" parent="0" />
        <mxCell id="-gY1syl0Tfl12FDxK1-V-1" value="&lt;div&gt;Main Page&lt;/div&gt;&lt;div&gt;- TechStack:&lt;/div&gt;&lt;div&gt;- Symfony&lt;br&gt;&lt;/div&gt;" style="whiteSpace=wrap;html=1;aspect=fixed;" vertex="1" parent="1">
          <mxGeometry x="170" y="250" width="220" height="220" as="geometry" />
        </mxCell>
        <mxCell id="-gY1syl0Tfl12FDxK1-V-2" value="&lt;div&gt;Main Page&lt;/div&gt;&lt;div&gt;- TechStack:&lt;/div&gt;&lt;div&gt;- Symfony&lt;br&gt;&lt;/div&gt;" style="whiteSpace=wrap;html=1;aspect=fixed;" vertex="1" parent="1">
          <mxGeometry x="510" y="250" width="220" height="220" as="geometry" />
        </mxCell>
      </root>
    </mxGraphModel>
  </diagram>
</mxfile>
